#!OML:ASF X:\für Bonn\!DataBase\2005_08_11_Bastian_Final\c3d\Bastian.ASF
:FULLY-SPECIFIED
:DEGREES
239
root 15.3072 17.1284 -2.23885 894.983 75.1068 -182.22
lowerback 17.0586 0.484512 1.76248
upperback 10.9664 1.8171 0.172774
thorax 2.19887 1.39544 -1.0609
lowerneck -6.2074 -9.00783 -4.59645
upperneck -8.89913 -11.1422 9.79142
head -0.901816 -5.44788 3.7632
rclavicle 2.54444e-014 -1.55052e-014
rhumerus -26.8871 27.3645 -91.4795
rradius 27.1325
rwrist -4.16104
rhand -10.9148 2.1393
rfingers 7.12502
rthumb 15.1026 -27.2897
lclavicle 2.54444e-014 -1.55052e-014
lhumerus -27.8226 -6.59366 88.6184
lradius 13.0576
lwrist 8.80631
lhand -9.24816 -6.02028
lfingers 7.12502
lthumb 16.7076 23.2807
rfemur 21.6272 -1.37482 25.4031
rtibia 14.0698
rfoot -16.1301 -21.8107
rtoes -16.5799
lfemur -27.2259 2.01707 -19.1833
ltibia 27.4395
lfoot -9.72777 -6.67993
ltoes -20.0798
240
root 15.4708 17.1066 -2.27857 894.667 75.0625 -182.509
lowerback 16.6229 0.539152 1.40031
upperback 10.7415 1.79408 0.0240011
thorax 2.17349 1.35184 -1.0038
lowerneck -6.07284 -9.01695 -4.62266
upperneck -8.39191 -11.2001 9.93262
head -0.744483 -5.48152 3.80146
rclavicle -4.57205e-014 3.77691e-014
rhumerus -27.2072 26.9693 -91.7235
rradius 26.8797
rwrist -3.54577
rhand -10.6831 2.20724
rfingers 7.12502
rthumb 15.3258 -27.2049
lclavicle -4.57205e-014 3.77691e-014
lhumerus -28.2086 -5.03106 88.013
lradius 12.5776
lwrist 7.12545
lhand -8.41552 -5.87544
lfingers 7.12502
lthumb 17.509 23.3561
rfemur 22.7307 -1.37339 25.3354
rtibia 13.1178
rfoot -15.4268 -21.8172
rtoes -17.9181
lfemur -27.1846 1.69142 -19.1804
ltibia 28.0697
lfoot -9.32843 -6.59306
ltoes -18.5661
241
root 15.6346 17.0851 -2.32076 894.21 74.9911 -182.928
lowerback 16.2249 0.574291 1.03381
upperback 10.5089 1.7498 -0.141063
thorax 2.12198 1.29883 -0.959461
lowerneck -5.86208 -9.0147 -4.61696
upperneck -7.93282 -11.2442 10.0551
head -0.620195 -5.51068 3.83474
rclavicle 2.10712e-014 2.28602e-014
rhumerus -27.5877 26.7037 -92.0367
rradius 26.6898
rwrist -3.23399
rhand -10.5323 2.22382
rfingers 7.12502
rthumb 15.471 -27.1771
lclavicle 2.10712e-014 2.28602e-014
lhumerus -28.5509 -3.11082 87.2051
lradius 11.9934
lwrist 5.12076
lhand -7.56418 -5.8549
lfingers 7.12502
lthumb 18.3281 23.3016
rfemur 23.8039 -1.41801 25.2105
rtibia 12.2702
rfoot -14.7106 -21.8272
rtoes -19.2977
lfemur -27.12 1.35431 -19.2251
ltibia 28.7497
lfoot -8.79746 -6.55239
ltoes -16.6296
242
root 15.8008 17.0639 -2.36489 893.751 74.9853 -183.326
lowerback 15.7842 0.626454 0.662916
upperback 10.3322 1.73633 -0.302967
thorax 2.1556 1.26485 -0.910768
lowerneck -5.75668 -9.01781 -4.50715
upperneck -7.44768 -11.3006 10.0789
head -0.48162 -5.54355 3.80929
rclavicle 6.34123e-014 -1.21259e-014
rhumerus -27.8767 26.3691 -92.3037
rradius 26.4828
rwrist -3.02615
rhand -10.4639 2.28641
rfingers 7.12502
rthumb 15.5368 -27.1094
lclavicle 6.34123e-014 -1.21259e-014
lhumerus -28.9028 -1.70524 86.5728
lradius 11.6025
lwrist 3.73115
lhand -6.74499 -5.64418
lfingers 7.12502
lthumb 19.1161 23.4364
rfemur 24.822 -1.31077 25.1472
rtibia 11.5973
rfoot -13.9597 -21.9136
rtoes -20.9018
lfemur -26.9765 1.07939 -19.2736
ltibia 29.4461
lfoot -8.33182 -6.47938
ltoes -15.066
243
root 15.9692 17.0452 -2.41073 892.739 74.9893 -184.271
lowerback 15.3701 0.697204 0.182061
upperback 10.1533 1.73964 -0.525541
thorax 2.17402 1.23696 -0.866589
lowerneck -5.66284 -9.02898 -4.39492
upperneck -6.89752 -11.3718 10.1414
head -0.316809 -5.5821 3.79355
rclavicle 2.10712e-014 -1.93815e-014
rhumerus -28.2388 26.0182 -92.6361
rradius 26.3222
rwrist -3.03404
rhand -10.4762 2.39822
rfingers 7.12502
rthumb 15.5251 -26.9985
lclavicle 2.10712e-014 -1.93815e-014
lhumerus -29.2329 -0.312266 85.8853
lradius 11.2256
lwrist 2.45967
lhand -5.9299 -5.23127
lfingers 7.12502
lthumb 19.8997 23.7699
rfemur 25.7874 -1.15868 24.9276
rtibia 11.1146
rfoot -13.281 -21.9637
rtoes -22.3975
lfemur -26.7579 0.820823 -19.4775
ltibia 30.1366
lfoot -7.90131 -6.38202
ltoes -14.0424
244
root 16.1399 17.0281 -2.45827 891.705 75.0267 -185.211
lowerback 14.968 0.772266 -0.274022
upperback 10.0086 1.76169 -0.764008
thorax 2.22617 1.22303 -0.854497
lowerneck -5.64078 -9.03992 -4.19062
upperneck -6.37158 -11.4417 10.1709
head -0.156035 -5.61795 3.74792
rclavicle 1.19271e-014 9.93923e-016
rhumerus -28.5247 25.5577 -92.9467
rradius 26.1684
rwrist -3.01905
rhand -10.5431 2.48439
rfingers 7.12502
rthumb 15.4606 -26.9174
lclavicle 1.19271e-014 9.93923e-016
lhumerus -29.4712 0.808509 85.2601
lradius 10.8057
lwrist 1.48715
lhand -5.27173 -4.83355
lfingers 7.12502
lthumb 20.5323 24.1007
rfemur 26.6593 -1.05453 24.6659
rtibia 10.8766
rfoot -12.6482 -21.921
rtoes -23.8502
lfemur -26.4547 0.657817 -19.6979
ltibia 30.8231
lfoot -7.54659 -6.33549
ltoes -14.3754
245
root 16.3124 17.0114 -2.5082 890.876 75.0891 -185.928
lowerback 14.5497 0.852453 -0.681458
upperback 9.88209 1.80286 -0.963538
thorax 2.30768 1.22089 -0.830074
lowerneck -5.67843 -9.0636 -3.97744
upperneck -5.75806 -11.5375 10.1332
head 0.0393956 -5.66281 3.67172
rclavicle 5.02056e-014 -3.53837e-014
rhumerus -28.8359 25.1342 -93.2255
rradius 26.074
rwrist -3.15665
rhand -10.5992 2.56341
rfingers 7.12502
rthumb 15.4066 -26.8425
lclavicle 5.02056e-014 -3.53837e-014
lhumerus -29.6688 2.04003 84.5993
lradius 10.3193
lwrist 0.467559
lhand -4.70296 -4.4954
lfingers 7.12502
lthumb 21.0788 24.3789
rfemur 27.4108 -1.03757 24.4039
rtibia 10.8897
rfoot -12.0408 -21.7882
rtoes -25.3927
lfemur -26.1096 0.579394 -19.8721
ltibia 31.5077
lfoot -7.32168 -6.3669
ltoes -15.3061
246
root 16.4848 16.9955 -2.55893 890.154 75.1432 -186.519
lowerback 14.1879 0.922178 -1.09277
upperback 9.74886 1.83317 -1.11113
thorax 2.35105 1.21192 -0.74933
lowerneck -5.79257 -9.08975 -3.81996
upperneck -5.06764 -11.6396 10.0716
head 0.274551 -5.70525 3.59189
rclavicle 2.88238e-015 6.16232e-015
rhumerus -29.122 24.639 -93.4024
rradius 25.9645
rwrist -3.21457
rhand -10.638 2.65108
rfingers 7.12502
rthumb 15.3692 -26.7577
lclavicle 2.88238e-015 6.16232e-015
lhumerus -29.7785 2.0037 84.7476
lradius 9.72865
lwrist 0.958843
lhand -4.55513 -4.00284
lfingers 7.12502
lthumb 21.2208 24.8556
rfemur 28.0362 -1.02832 24.1709
rtibia 11.1666
rfoot -11.5248 -21.6188
rtoes -26.6722
lfemur -25.742 0.605248 -20.0426
ltibia 32.2092
lfoot -7.15221 -6.49773
ltoes -15.8706
